<svg id="Layer_1" data-name="Layer 1" xmlns="http://www.w3.org/2000/svg" viewBox="0 0 1500 1500"><defs><style>.cls-1{fill:none;}.cls-2{fill:#171515;}.cls-3{fill:#222020;}.cls-4{fill:#1f1d1d;}.cls-5{fill:#1c1a1a;}.cls-6{fill:#292727;}.cls-7{fill:#2f2d2d;}</style></defs><rect class="cls-1" width="1500" height="1500"/><path class="cls-2" d="M1846.14857,1306.85138c37.26876-5.3106,71.11076-10.279,104.14934-19.59379,143.64981-40.50061,223.22029-137.42473,235.02291-286.44809,3.57237-45.10631,5.25035-89.95978-5.9261-134.48586-10.4311-41.55743-28.81764-78.993-56.34825-111.62718-8.33867-9.8845-10.71079-17.55015-6.76716-31.04285,16.88093-57.75469,10.88294-114.87549-9.10861-171.11428-3.739-10.51823-10.85325-11.00884-19.48772-10.75193-43.81527,1.30373-83.12925,17.59985-121.1674,37.3125-20.47961,10.61316-40.2193,22.73237-59.79435,34.96936-6.6123,4.13357-11.93192,5.0091-19.62431,3.07708q-176.88387-44.42712-353.91612-.0398c-9.4317,2.37935-15.54763-.11712-22.7127-4.67894-49.17273-31.30705-99.7799-59.41565-158.42609-69.01322-1.75715-.28758-3.498-.6887-5.262-.91777-29.06537-3.774-30.28432-3.00836-38.99307,24.609-17.20853,54.57207-20.0133,109.398-2.21079,164.37843,2.0735,6.40358,1.1921,10.3806-2.93113,15.75243-88.3753,115.1386-95.67581,291.23812-17.31021,413.96793,45.11,70.64743,112.802,107.84949,191.474,128.69172,30.33717,8.03713,61.34423,12.61227,94.87619,17.35793-25.98209,27.37787-39.70966,58.30789-45.07065,92.885-1.07492,6.93291-5.54729,8.60285-10.36139,10.44569-80.54986,30.83378-158.74788,18.51132-208.3543-63.80891-23.50911-39.0125-56.18327-67.11627-102.2146-76.70383-12.396-2.58189-24.756-2.59723-36.87308,1.71648-11.28205,4.01661-13.70141,11.31524-6.01139,20.27238,5.72946,6.67355,12.27722,13.24954,19.74537,17.72464,40.54626,24.29671,66.2636,60.72655,83.60394,103.24988,27.651,67.8079,81.17918,97.6014,150.324,104.6238a281.55191,281.55191,0,0,0,93.79616-5.8364c11.01594-2.617,12.919,1.00179,12.86139,11.00846-.22212,38.59263.16312,77.19026.51992,115.7843.36589,39.57353-22.24421,55.76993-60.23646,42.53768-94.60873-32.95089-180.40822-81.538-254.40765-149.13548-174.7156-159.60053-260.46815-358.50305-247.77665-594.75193,17.86116-332.48023,252.38772-606.36484,577.95463-683.135,346.037-81.597,705.1583,93.73956,853.60879,416.76414,182.91377,398.01557-22.19087,871.605-437.71368,1010.68734-37.13685,12.43045-59.05215-3.18273-58.9832-42.30409q.15838-89.95778.7322-179.91423c.17117-21.43816-.45772-42.81292-4.6282-63.8224C1885.74953,1363.04587,1873.361,1333.24846,1846.14857,1306.85138Z" transform="translate(-960 -210)"/><path class="cls-3" d="M1504.12571,1430.50882c7.72077,1.13544,15.6436,2.58734,14.36625,10.89558-1.46761,9.54536-10.11867,12.37608-18.953,12.02014-6.086-.24512-12.62106-2.45074-12.31836-9.82963C1487.67243,1432.58189,1497.16009,1432.20768,1504.12571,1430.50882Z" transform="translate(-960 -210)"/><path class="cls-3" d="M1336.23268,1422.84839c-9.42952-1.66156-15.92791-6.63374-17.20228-16.709-.8081-6.38874,2.27082-10.181,8.916-9.87726,11.02018.50361,17.10076,7.23392,18.53743,17.43884C1347.38347,1420.09108,1342.496,1422.72159,1336.23268,1422.84839Z" transform="translate(-960 -210)"/><path class="cls-3" d="M1445.82887,1438.09607c7.34809.871,15.81618,1.98987,15.43132,10.9643-.40438,9.43031-9.10072,11.64138-17.03578,11.27348-7.20368-.33407-15.01531-2.74252-14.27957-11.96142C1430.67225,1439.25673,1438.87064,1438.8834,1445.82887,1438.09607Z" transform="translate(-960 -210)"/><path class="cls-4" d="M1383.0998,1428.43576c8.182.48654,16.28863,3.854,17.051,13.34034.66989,8.33652-7.123,9.69261-13.87481,9.17214-8.69624-.67021-16.79844-3.57912-16.78452-13.99522C1369.50164,1429.29182,1376.09312,1428.42521,1383.0998,1428.43576Z" transform="translate(-960 -210)"/><path class="cls-5" d="M1307.137,1369.77531c.185,5.44382-1.42171,9.97045-7.44471,9.86508-9.9327-.174-14.616-6.66365-15.78812-15.7626-.65787-5.10692.994-9.89684,7.2276-9.851C1301.31663,1354.10177,1305.06881,1361.27392,1307.137,1369.77531Z" transform="translate(-960 -210)"/><path class="cls-6" d="M1276.49939,1328.73944c.43777,5.71047-2.24368,8.90788-6.96927,8.86753-8.04707-.06851-13.28262-4.54828-14.569-12.61314-.85889-5.385,1.25234-10.05485,7.35277-9.38812C1270.08267,1316.455,1274.63116,1321.84307,1276.49939,1328.73944Z" transform="translate(-960 -210)"/><path class="cls-7" d="M1244.59016,1298.6185c-.41645,6.1994-4.12605,8.09314-8.50739,7.61911-5.3784-.58191-10.836-2.64791-12.174-8.64754-1.14115-5.11714,2.43383-7.53254,7.247-7.65412C1237.88385,1289.766,1241.848,1293.73811,1244.59016,1298.6185Z" transform="translate(-960 -210)"/></svg>