<svg id="Layer_1" data-name="Layer 1" xmlns="http://www.w3.org/2000/svg" viewBox="0 0 1500 1500"><defs><style>.cls-1{fill:none;}.cls-2{fill:#26b759;}.cls-3{fill:#1ba84c;}.cls-4{fill:#5ac780;}.cls-5{fill:#5cc981;}.cls-6{fill:#91dbab;}.cls-7{fill:#91daaa;}.cls-8{fill:#c5ebd3;}.cls-9{fill:#c9ecd5;}.cls-10{fill:#2dbf60;}.cls-11{fill:#20ae51;}.cls-12{fill:#1dab4e;}.cls-13{fill:#29ba5c;}.cls-14{fill:#27b859;}.cls-15{fill:#2abc5d;}.cls-16{fill:#22b154;}.cls-17{fill:#2fc262;}.cls-18{fill:#24b457;}.cls-19{fill:#31c464;}.cls-20{fill:#22b254;}.cls-21{fill:#fefefe;}.cls-22{fill:#25b557;}.cls-23{fill:#28b95b;}</style></defs><rect class="cls-1" width="1500" height="1500"/><path class="cls-2" d="M756.7122,1095.14247c-1.42705-13.933-1.51534-27.9301-2.00046-41.908q-.49416-14.23821-.9554-28.47751c-.59983-3.43341-.14374-6.89588-.28527-10.34168q.00108-5.599-.00005-11.19792c-.272-5.35788.55709-10.7494-.484-16.08469v-75.1305c1.08866-5.01207.18764-10.088.48419-15.12653q.00087-6.04053-.00009-12.07934c.16477-3.46562-.36264-6.95269.32753-10.40123l.28427-1.83281c2.07061-1.93587,4.6806-1.51,7.13362-1.51886,14.85572-.05354,29.71168-.0258,44.56756-.02586q172.17186-.00068,344.34371.02826c3.23029.001,6.60089-.65522,9.61913,1.22017,1.42218,1.74036,1.16423,3.83947,1.165,5.84734q.04041,105.63756.00147,211.27508c-.00066,2.00964.26339,4.1005-1.03023,5.90167-2.79764,1.98522-6.02362,1.356-9.09288,1.35728q-127.09573.05287-254.19146.02774-65.6583-.00009-131.3166-.02436C762.367,1096.64826,759.28719,1097.22909,756.7122,1095.14247Z" transform="translate(-682.40923 -198.14284)"/><path class="cls-3" d="M1420.65966,1698.055c-2.44864-1.90864-5.52937-1.54374-8.303-2.26437-14.73674-3.8276-28.16158-10.90708-41.99148-16.94712-32.11281-14.02472-63.82316-28.923-95.238-44.454-5.049-2.49605-10.33283-4.51636-15.09268-7.58871-.96978-2.63936,1.11365-2.84892,2.71316-3.2348a25.792,25.792,0,0,1,6.08034-.29967q163.58772-.00963,327.1755-.00068a26.56749,26.56749,0,0,1,6.08126.2968c1.40779.32959,3.33153.44423,2.61876,2.84044-13.02449,6.33523-25.97958,12.81847-39.08958,18.97155-20.36183,9.55662-40.81215,18.92547-61.25742,28.30291q-19.929,9.14088-39.95459,18.07037a75.085,75.085,0,0,1-19.35141,5.3444c-.74361.11533-1.59223-.04884-1.85342.96286Z" transform="translate(-682.40923 -198.14284)"/><path class="cls-4" d="M752.987,987.13262c2.04227,5.25648.49993,10.70108.84209,16.0468q-.47441.51021-.84209-.08157Z" transform="translate(-682.40923 -198.14284)"/><path class="cls-5" d="M753.79675,896.877c-.22382,5.04416,1.15331,10.17407-.80976,15.12515V896.976C753.21317,896.58532,753.4851,896.56876,753.79675,896.877Z" transform="translate(-682.40923 -198.14284)"/><path class="cls-6" d="M753.79675,896.877q-.4071.03129-.80976.099v-12.2087c.23922-.40686.51-.41013.808-.06311Z" transform="translate(-682.40923 -198.14284)"/><path class="cls-7" d="M752.987,1003.09785q.42234.03165.84254.08123-.05332,5.6371-.10576,11.27347c-.28626.32363-.53.279-.73678-.08512Z" transform="translate(-682.40923 -198.14284)"/><path class="cls-8" d="M752.987,1014.36743a1.75053,1.75053,0,0,0,.73718.08495q.01571,5.15244.03219,10.30453l-.38835.01812-.381-.07716Z" transform="translate(-682.40923 -198.14284)"/><path class="cls-9" d="M753.795,884.7042q-.40539.0141-.808.06311V874.43686a7.61707,7.61707,0,0,1,.81166-.04184Q753.79681,879.54961,753.795,884.7042Z" transform="translate(-682.40923 -198.14284)"/><path class="cls-10" d="M1159.5112,1095.15955l.01015-222.58232c-2.02537-2.60846-1.42513-5.68821-1.42679-8.60557q-.05179-89.89213-.03247-179.78432c-.00235-9.83812.57766-9.18456-9.172-9.18545q-186.10752-.0171-372.215-.02969c-3.92632-.00086-7.79042-.01-11.25422,2.20178,1.66454-17.09722,3.1831-34.21031,5.04278-51.28627,1.33273-12.23745,1.73485-24.63792,5.93261-36.437,5.86753-16.4924,15.44009-30.16589,29.67593-40.571,33.56321-24.53168,67.3005-48.81413,101.743-72.1028,1.79879-1.2163,3.69522-2.2881,5.54621-3.42717a9.019,9.019,0,0,1,4.55979-.865c9.69194.71036,19.39848.31893,29.09681.31967q494.38621.038,988.77243.09269c4.94773.00117,9.97409-1.41119,14.88261.39929,17.44325,11.02043,34.19275,23.05812,51.0061,34.99253q28.11441,19.95618,55.91152,40.35845c20.85572,15.36186,31.89508,36.335,34.38831,61.97072q.86181,8.85969,1.73415,17.71836c-1.75616.93518-3.66374.64368-5.52249.64348q-188.527-.01891-377.054-.01052c-2.81249-.00037-5.6256.196-8.436.00545-2.26168-.39737-3.204-2.35262-4.47287-3.8849a14.50218,14.50218,0,0,0-11.81163-5.61607q-62.82636.04557-125.6526-.00565a14.65525,14.65525,0,0,0-12.17369,5.845c-1.14677,1.43621-2.05649,3.205-4.13894,3.595-40.93177.13289-81.862.03055-122.79231.05723q-32.10265.02094-64.20019.01167c-4.70866-.72625-7.48784-4.46271-10.55355-7.37964-15.86145-15.09216-32.01463-29.87162-48.01324-44.8136-15.76768-14.72635-31.30822-29.70963-47.52749-43.9448-7.51272-6.59375-16.28667-6.08535-23.58323.63278-23.23741,21.39533-46.241,43.04158-69.39236,64.52811-10.771,9.99638-21.30092,20.26051-32.40049,29.90658-5.7357,4.98461-7.79,11.42314-5.64428,18.65847,2.0548,6.92859,7.593,10.025,14.43847,10.99309,6.54019.92483,13.12643.28546,19.69.44782,6.47144.16009,7.2963.93941,7.4252,7.3375.01891.93873.00989,1.87784.00989,2.8168q.00051,294.126-.00178,588.252a36.61277,36.61277,0,0,1-.15131,5.62539c-.19743,1.27044-.01832,2.94384-2.02726,3.09585-1.862-1.6969-1.626-3.98867-1.62791-6.13531q-.06887-79.02924-.00788-158.05848C1158.09275,1098.91487,1158.038,1096.83971,1159.5112,1095.15955Z" transform="translate(-682.40923 -198.14284)"/><path class="cls-11" d="M987.73786,1473.63692c-15.36786-8.964-30.08308-18.95448-44.94977-28.70071-45.49741-29.82717-89.97626-61.12-133.85036-93.28009-9.59945-7.03661-18.163-15.00329-23.99178-25.55923.044-2.59648,2.04522-2.889,3.89864-3.15237a56.5218,56.5218,0,0,1,7.96832-.1981q377.31123-.0067,754.62246.002c3.91014.00011,7.81953-.0775,11.71379-.06718,2.18941-.37831,3.90939.52356,5.48455,1.97341,8.38071,7.71367,16.82017,15.37014,25.04727,23.24155,5.86541,5.61186,11.98937,10.93575,17.82663,16.58188,7.08486,6.85284,16.83427,6.71986,24.07274.002,13.49528-12.52454,26.82956-25.22218,40.47432-37.58657,1.98153-1.79561,3.78118-3.8111,6.83072-3.50386,3.60413.32294,7.20293.29806,10.80179.29806q187.28532-.00327,374.57053.00035a48.7729,48.7729,0,0,1,6.564.12794c1.56736.21288,3.63382-.19317,4.05933,2.22092-5.34767,9.58368-12.8871,17.218-21.60884,23.671-57.989,42.904-117.30347,83.88281-178.28538,122.42984-.90948.57481-1.90288,1.01663-2.85719,1.52059a70.8789,70.8789,0,0,1-11.68748.54775q-432.9777-.00465-865.95542.01158A73.21492,73.21492,0,0,1,987.73786,1473.63692Z" transform="translate(-682.40923 -198.14284)"/><path class="cls-12" d="M987.73785,1473.63692c1.36622-1.57653,3.21183-.94727,4.85206-.94739q439.34911-.04058,878.69818,0c1.639.00012,3.48812-.63063,4.84157.96871-18.39194,12.348-37.43911,23.64554-56.39561,35.08352q-103.23044,62.28738-211.207,115.935c-1.24988.62467-2.54791,1.15282-3.82347,1.726-1.06143-2.8182-3.49317-1.537-5.26663-1.53961q-75.04812-.11247-150.0964-.06042-91.9341,0-183.86821.06213c-1.87652.0023-4.60549-1.39837-5.43778,1.93593-56.46241-27.68293-111.75524-57.55492-166.2619-88.89511q-51.54945-29.63989-101.854-61.35019C990.48356,1475.64828,989.12959,1474.61273,987.73785,1473.63692Z" transform="translate(-682.40923 -198.14284)"/><path class="cls-13" d="M765.42088,677.174c.65695-3.08176,2.50095-3.79551,5.62295-3.79316q191.7468.14376,383.4938.04681c3.14451-.001,5.15673.06451,5.14635,4.33843q-.23669,97.405-.16186,194.811-202.72038-.00723-405.43923-.01485c-.12578-16.86819.87289-33.70114,1.56417-50.54428C757.63216,773.65037,760.75347,725.3602,765.42088,677.174Z" transform="translate(-682.40923 -198.14284)"/><path class="cls-14" d="M2107.896,819.03213q.10849,3.667.21688,7.334c1.00818,4.07139-.13584,8.257.65546,12.33991.6518,22.94028,1.67683,45.87746,1.86575,68.82158.26766,32.49862-.06878,65.00246-.19121,97.50383-.00928,2.487-.36716,4.97263-.56307,7.45888a6.37086,6.37086,0,0,1-4.34018,1.47393c-1.24971.07348-2.50149.06512-3.75269.06512q-195.43321.003-390.86637-.01777c-2.62512-.00046-5.354.38169-7.7448-1.22751-1.49353-1.86-1.3734-4.099-1.37471-6.26886q-.05485-90.6589-.00367-181.31775c.001-2.1718-.12913-4.40344,1.23681-6.32555,2.79954-1.98734,6.02813-1.35659,9.09974-1.35786q128.83777-.05253,257.67555-.02768,65.00553.00009,130.01106.02889C2102.56956,817.518,2105.51192,816.90871,2107.896,819.03213Z" transform="translate(-682.40923 -198.14284)"/><path class="cls-15" d="M2107.89614,819.03213q-202.211-.00044-404.42212-.0008c-2.43-2.44482-1.65133-5.57873-1.65385-8.45391q-.07531-85.59708.03737-171.19414c.00671-3.65492-1.473-7.4479.52931-11.02378,1.4016-1.50609,3.23542-.88763,4.87981-.888q190.49834-.04282,380.99677-.02144c1.859.00008,3.77722-.29213,5.44958.88642q.14667,2.316.29357,4.63209c.9221,1.48863-.02487,3.25248.70224,4.76983q.14082,2.236.28153,4.47194c.81182,1.56082-.05468,3.35365.68068,4.92508q.12914,2.23311.25838,4.46623c.81182,1.56082-.05468,3.35365.68057,4.92508q.11744,2.276.23477,4.55193c.85778,1.5221-.00264,3.27707.65408,4.82643l.24658,4.67749c1.01815,1.78763-.06672,3.84279.71988,5.65986,3.43654,34.924,5.86237,69.92275,7.74588,104.96117C2106.88865,793.80776,2107.92342,806.39644,2107.89614,819.03213Z" transform="translate(-682.40923 -198.14284)"/><path class="cls-16" d="M2078.88107,1326.03682c-1.7816-1.51532-3.91088-.78093-5.86409-.7815q-192.19872-.05881-384.39737-.01032a25.51446,25.51446,0,0,1-7.84458-.9655c-.37937-2.86107,1.875-4.12211,3.56487-5.61347,11.24478-9.924,21.97429-20.40466,32.99038-30.57461,6.88327-6.35473,13.79716-12.68836,20.54907-19.19522,5.356-5.16167,7.87278-10.85423,5.35306-18.08848-2.62345-7.53265-8.33726-11.09223-16.06125-11.5125-6.08624-.33119-12.19106-.02453-18.28648-.123-5.93063-.09573-6.835-.92171-6.84843-6.8243q-.08718-38.22363.01049-76.44714c.00527-2.25629-.45147-4.81918,2.16786-6.24674,2.27469-.80965,4.63776-.64221,6.97446-.64239q191.598-.01753,383.19615-.00768c.78168.00006,1.56369-.00372,2.345.01961,6.74595.20165,7.62047,1.292,6.71,8.35817q-.17005,3.65459-.34,7.30928c-.61145,1.90394.23178,3.95692-.59838,5.83839q-.14117,3.17628-.28222,6.35255c-.81732,2.13391.33839,4.48311-.71863,6.59089q-.12379,2.81292-.24771,5.62573c-.69777,1.86553.25711,3.91828-.65237,5.75986l-.2593,5.5018c-.75427,1.86061.24256,3.92757-.67976,5.76835q-.14152,2.7541-.28291,5.50811c-.73261,1.82186.30927,3.86142-.69307,5.65026l-.21906,4.67193c-.68675,1.58054.13389,3.36193-.65638,4.92872-1.06527,18.71074-3.65262,37.27372-5.39238,55.91706-1.33695,14.3276-4.36906,28.03912-11.67877,40.58212C2080.198,1324.31573,2079.504,1325.15558,2078.88107,1326.03682Z" transform="translate(-682.40923 -198.14284)"/><path class="cls-17" d="M1950.67305,473.29642c-8.1934,1.69449-16.49444,1.04861-24.75387,1.04924q-493.19673.03749-986.39347-.00522c-8.72638-.00083-17.49525.69853-26.16423-.99072,15.52353-11.26673,31.694-21.57262,47.78816-31.98233,19.77646-12.79146,39.70274-25.35133,59.5848-37.97895a23.48369,23.48369,0,0,1,3.352-1.47325c4.3887-.65483,8.69288.54472,13.07654.54355q395.0303-.10686,790.06067-.0191c4.3803.00081,8.72449-.89805,13.109-.34381,20.08608,11.65533,39.52219,24.35415,59.02617,36.93674,15.723,10.14329,31.26289,20.57069,46.86584,30.89936C1947.772,470.95607,1949.19327,472.17039,1950.67305,473.29642Z" transform="translate(-682.40923 -198.14284)"/><path class="cls-18" d="M2103.44019,1157.38175c-.23362-6.83764-.23362-6.84-7.15622-6.83994q-196.40506.00043-392.81024.002c-1.91171-1.66647-1.65877-3.96861-1.66135-6.11473q-.07575-62.91125,0-125.82256c.00263-2.14606-.25036-4.44832,1.6617-6.11456q203.20283-.00086,406.40576-.00166-.07325,8.47419-.14638,16.94833c-.908,5.613.4317,11.32151-.71863,16.92425.09813,21.82844-1.43358,43.59653-2.47879,65.38106-.60457,12.60158-1.47,25.19095-2.2501,37.78376C2104.12316,1152.15537,2104.38956,1154.8364,2103.44019,1157.38175Z" transform="translate(-682.40923 -198.14284)"/><path class="cls-19" d="M1124.77393,342.71663c18.28848-11.08766,37.24553-20.97461,56.08648-31.0593q106.78988-57.15966,217.90343-105.39521c22.62321-9.82584,45.06107-9.40834,67.64348.51336,51.1675,22.4807,101.84031,46.00283,151.76239,71.13292q59.21711,29.80907,117.05707,62.21206c1.348.755,2.61073,1.66244,3.91317,2.49881.02557,2.24921-1.78653,2.26212-3.24166,2.534a30.53066,30.53066,0,0,1-5.61993.21484q-298.26938.00529-596.53884.00022a32.15143,32.15143,0,0,1-5.62125-.19924C1126.66122,344.91084,1124.85549,344.93249,1124.77393,342.71663Z" transform="translate(-682.40923 -198.14284)"/><path class="cls-17" d="M1124.77393,342.71663c1.28226,1.71283,3.14821,1.08625,4.78234,1.08645q302.42461.039,604.84929.002c1.6343-.00019,3.51036.605,4.73439-1.18571,17.05706,9.83131,34.1798,19.55083,51.1526,29.52572,16.759,9.84917,33.36626,19.95659,50.0401,29.95076a20.63936,20.63936,0,0,1-9.53379,1.87084q-398.3733-.05646-796.74667.00368a21.16923,21.16923,0,0,1-9.96566-2.0551c14.02829-9.69,28.93282-17.957,43.55155-26.67956,14.73256-8.79053,29.65649-17.26144,44.537-25.80191C1116.30079,347.06587,1120.57036,344.9488,1124.77393,342.71663Z" transform="translate(-682.40923 -198.14284)"/><path class="cls-14" d="M2109.01483,1046.36289c.367-5.636-.95156-11.34363.71863-16.92431C2109.792,1035.09275,2109.98255,1040.75241,2109.01483,1046.36289Z" transform="translate(-682.40923 -198.14284)"/><path class="cls-15" d="M2108.76837,838.706c-1.55337-4.042-.41416-8.22708-.65546-12.33934A50.85789,50.85789,0,0,1,2108.76837,838.706Z" transform="translate(-682.40923 -198.14284)"/><path class="cls-18" d="M2101.501,1183.47286c.24062-2.19685-.72825-4.52565.71863-6.59089C2102.272,1179.1108,2102.41137,1181.349,2101.501,1183.47286Z" transform="translate(-682.40923 -198.14284)"/><path class="cls-10" d="M2098.46529,676.24244c-1.37638-1.742-.52593-3.76727-.71988-5.65978C2098.65421,672.38411,2098.52868,674.31723,2098.46529,676.24244Z" transform="translate(-682.40923 -198.14284)"/><path class="cls-18" d="M2102.50181,1170.52942c.09652-1.95668-.68274-4.00312.59838-5.83839A12.24707,12.24707,0,0,1,2102.50181,1170.52942Z" transform="translate(-682.40923 -198.14284)"/><path class="cls-18" d="M2100.60076,1194.85845c.135-1.92928-.6777-3.966.65249-5.75986A11.8107,11.8107,0,0,1,2100.60076,1194.85845Z" transform="translate(-682.40923 -198.14284)"/><path class="cls-18" d="M2099.66193,1206.1286c.14111-1.93284-.696-3.981.67954-5.76835A12.28114,12.28114,0,0,1,2099.66193,1206.1286Z" transform="translate(-682.40923 -198.14284)"/><path class="cls-18" d="M2098.68584,1217.287c.189-1.88858-.64285-3.90235.69307-5.65026A11.65415,11.65415,0,0,1,2098.68584,1217.287Z" transform="translate(-682.40923 -198.14284)"/><path class="cls-10" d="M2097.49883,665.90509c-1.24191-1.46957-.56868-3.19886-.6542-4.82586A8.36113,8.36113,0,0,1,2097.49883,665.90509Z" transform="translate(-682.40923 -198.14284)"/><path class="cls-10" d="M2096.61,656.52673c-1.32445-1.489-.61431-3.25947-.6808-4.92379A9.21207,9.21207,0,0,1,2096.61,656.52673Z" transform="translate(-682.40923 -198.14284)"/><path class="cls-10" d="M2095.67092,647.13542c-1.32445-1.489-.61431-3.25948-.6808-4.92379A9.21205,9.21205,0,0,1,2095.67092,647.13542Z" transform="translate(-682.40923 -198.14284)"/><path class="cls-18" d="M2097.8104,1226.88762c.06523-1.66332-.6393-3.42923.65638-4.92872A9.11181,9.11181,0,0,1,2097.8104,1226.88762Z" transform="translate(-682.40923 -198.14284)"/><path class="cls-10" d="M2094.70882,637.7384c-1.27849-1.43595-.5852-3.16232-.70224-4.76957A8.08331,8.08331,0,0,1,2094.70882,637.7384Z" transform="translate(-682.40923 -198.14284)"/><path class="cls-20" d="M1565.27982,1323.3406c-2.3053,1.41087-4.86743.92468-7.33774.9248q-383.10748.02458-766.21488.06076c-2.32461.00034-5.1387-1.14205-6.78125,1.77073-8.145-12.09659-11.64311-25.68293-13.21192-39.995-3.79468-34.618-7.26368-69.26724-9.85543-103.99469-2.16127-28.95928-4.48887-57.91467-5.1664-86.96468q201.4004.00825,402.79989.01679.03276,82.2736.09486,164.54659c.00186,1.81223-.60887,3.77178.75671,5.41789a5.42924,5.42924,0,0,1,2.29919,2.86474c3.39158,7.2362,9.1278,9.90261,17.0035,9.86489,36.37054-.17425,72.74238-.07726,109.11376-.077,4.05858,0,8.12141-.118,12.175.02212,8.59508.297,14.274-3.592,17.19359-11.62358.97029-2.24672.69117-4.61919.69208-6.94948q.02133-53.93029.01273-107.86064c.00028-1.87483-.02963-3.74988.12735-5.62344a4.04564,4.04564,0,0,1,3.83913-4.0026,40.38235,40.38235,0,0,1,6.08452-.24161q103.16339-.00713,206.32677.006c2.49146.00046,5.01048-.205,7.43786.5818,2.31711,1.04729,2.26541,3.21405,2.27137,5.21715q.12664,42.94463-.00527,85.88936c-.018,4.95085-1.093,5.85547-6.27172,5.97046-6.09909.13539-12.20539-.13-18.3011.10535-7.48761.289-13.32878,3.38991-16.24,10.62541-2.49787,6.20811-1.716,11.94137,3.16217,16.86172,13.21467,13.32863,27.23525,25.798,41.05368,38.481,5.0682,4.65175,9.60388,9.865,15.05438,14.11609C1564.58813,1320.284,1565.74849,1321.4957,1565.27982,1323.3406Z" transform="translate(-682.40923 -198.14284)"/><path class="cls-21" d="M1319.41842,1266.96005c-3.23737,8.6356-9.292,12.52442-18.67789,12.47811-40.60816-.20074-81.21789-.08392-121.82705-.08747-10.38874-.00092-15.61408-4.01722-18.54979-14.22695q.02984-58.45095.05668-116.90184-.00215-241.09-.02284-482.18c-.00037-6.8173-.00043-6.81736-7.051-6.81753-5.32065-.00014-10.6417.04236-15.96184-.00977-9.03534-.08856-15.49663-4.13676-18.24435-11.35-2.84383-7.46553-.88229-14.48311,5.77706-20.67765q51.00825-47.44814,102.0224-94.88995c8.27378-7.68882,17.75163-7.75841,25.9745-.11685q51.20289,47.58328,102.34537,95.23169c.45124.41981.97631.76027,1.46694,1.13775,4.43389,1.78239,5.10236,5.85358,5.97287,9.80992a66.37069,66.37069,0,0,1-.02912,7.11253c-2.92677,10.11638-9.28,15.07746-19.61752,15.23732-5.43743.08409-10.87687-.01017-16.315.0354-1.83474.01539-3.7727-.28632-5.27632,1.20673-1.25762,1.67148-.87836,3.60967-.87888,5.45087q-.02553,96.06657.00418,192.13315c.00069,2.12313-.56519,4.44815,1.49956,6.08114,1.92959.92824,3.99169.71013,6.0103.71042q103.43265.01712,206.8653.00287c7.10366-.00121,7.16327-.09372,7.18694-7.45636.09193-28.61462-.17459-57.22981.12776-85.845-.29908-17.99585-.09578-35.992-.12117-53.98755q-.05838-41.315.03382-82.63c.008-2.83863-.79131-6.09455,2.41637-8.04768,4.09309-8.01637,10.72624-10.84922,19.5766-10.80216q59.55274.31694,119.108.0129c8.69394-.03949,15.12047,2.95436,19.09663,10.78537,1.41123,6.45351.91642,13.00253.91912,19.51847q.03422,82.76847.01473,165.53688c.00017,1.87213.0999,3.74432.15326,5.61645-.05107,4.52535-.1457,9.05066-.14667,13.576q-.01814,87.13691-.00613,174.27381c.00023,1.87029.09973,3.74053.15292,5.61082q-.07842,50.07564-.14708,100.15122c-.00871,12.6335.09452,25.26707.14673,37.90063-.05175,28.11645-.07279,56.23307-.20582,84.34911-.01244,2.62514.71519,3.5222,3.40639,3.45605,6.86907-.16886,13.74541-.09744,20.61814-.04379,8.09322.06317,14.24113,4.0398,17.00582,10.88955,2.8604,7.08693,1.2308,14.31361-4.84169,19.99964q-28.37164,26.567-56.85443,53.01506a27.41122,27.41122,0,0,0-1.82711,2.07006q-21.8637,20.17779-43.71622,40.36774c-8.76433,8.13784-18.30723,8.17751-27.06221.05262q-22.32357-20.71705-44.71678-41.35926-24.24594-22.71473-48.48959-45.43208c-3.41688-3.20339-6.90776-6.33719-10.18112-9.68262-5.33432-5.45193-6.6966-11.97736-3.8515-18.986,2.84641-7.01184,8.37412-10.75438,16.00307-10.91144q10.7755-.222,21.55807.021c2.69051.06168,3.41837-.83,3.40713-3.45616q-.19618-45.9302-.20633-91.86114c-1.7921-2.326-1.34847-5.07265-1.35117-7.69194q-.04943-47.87437-.02218-95.74869c-.00017-1.56427-.05261-3.12985-.03937-4.69228.02361-2.77778-1.37472-3.94671-4.04627-3.93582-1.4067.00573-2.81512-.03984-4.22291-.03984q-101.84274-.002-203.68548.00046c-8.429.00035-8.46061.00894-8.43728,8.60293q.13059,48.09243-1.25074,96.16438c-1.16959,42.84259-.13109,85.66283-.76895,128.48651A7.51611,7.51611,0,0,1,1319.41842,1266.96005Z" transform="translate(-682.40923 -198.14284)"/><path class="cls-15" d="M1320.18851,659.696c6.8039-1.02892,13.64826-.35449,20.47124-.42548,12.21176-.127,16.33821-2.77616,21.06045-14.03751a23.18075,23.18075,0,0,0,.03468-7.40179,28.84524,28.84524,0,0,0-5.02831-9.28163c1.2853-1.70653,3.14944-1.07845,4.78294-1.07925q89.34492-.04467,178.6899-.00482c1.499.00061,3.16848-.517,4.40621.89789-1.41346,2.93407-.8994,6.08461-.90232,9.13968q-.06276,65.18086-.03152,130.36173c-.00023,1.71582-.099,3.4317-.15189,5.14751-1.764,1.7231-4.03406,1.50907-6.1901,1.51016q-105.66539.05288-211.33072.001c-2.01367-.00109-4.09521.11728-5.82506-1.27032-.70716-1.14961-.43737-2.43-.43783-3.657q-.02115-53.12646.00177-106.253C1319.73853,662.12094,1319.432,660.83516,1320.18851,659.696Z" transform="translate(-682.40923 -198.14284)"/><path class="cls-22" d="M1319.41842,1266.96005c.07611-2.65426.217-5.30864.21895-7.9629q.07952-112.17765.03645-224.35523c-.0055-4.37632.87338-5.7821,5.56421-5.77132q106.7723.246,213.5454.031c3.75774-.006,5.01673.71662,4.99186,4.77992-.22285,36.44934-.20376,72.90024-.25574,109.35067q-108.79527-.0018-217.59017-.12942c-4.99066-.01273-5.8508,1.54362-5.82988,6.0844.173,37.51762.10667,75.03633.06764,112.55469C1320.16524,1263.35255,1320.78924,1265.31359,1319.41842,1266.96005Z" transform="translate(-682.40923 -198.14284)"/><path class="cls-23" d="M1320.37141,773.02948q111.57419-.00851,223.14842-.01714c.052,30.63624.06139,61.2727.222,91.90837.016,3.05613-1.41982,3.13128-3.7,3.12021-12.97359-.06288-25.94776-.03015-38.9217-.03015q-87.69139.00009-175.38279-.02086c-1.84665-.0008-3.75223.41666-5.54346-.42984-.7674-1.1401-.455-2.43049-.45566-3.65553q-.02606-43.42491.01215-86.84982C1319.752,775.7104,1319.21839,774.22059,1320.37141,773.02948Z" transform="translate(-682.40923 -198.14284)"/><path class="cls-10" d="M1320.37141,773.02948l-.17745,94.5307c-1.047-1.229-.54272-2.69937-.54324-4.04771q-.03594-99.87982.01118-199.75972c.00063-1.35143-.49149-2.818.52661-4.05691q.00267,53.86173.01284,107.723C1320.202,769.28906,1320.3122,771.1593,1320.37141,773.02948Z" transform="translate(-682.40923 -198.14284)"/><path class="cls-10" d="M1361.75488,637.83123a8.4897,8.4897,0,0,1-.03474,7.40182Z" transform="translate(-682.40923 -198.14284)"/></svg>