<svg id="Layer_1" data-name="Layer 1" xmlns="http://www.w3.org/2000/svg" viewBox="0 0 1500 1500"><defs><style>.cls-1{fill:none;}.cls-2{fill:#215880;}.cls-3{fill:#f5f5f5;}</style></defs><rect class="cls-1" width="1500" height="1500"/><path class="cls-2" d="M1313.96687,1787.81234q-323.81112.00068-647.62178-.23509c-37.5409-.08418-65.60736-19.244-85.86466-50.37605-12.5419-19.27494-16.88224-40.579-16.87928-63.23548q.08307-637.12958.22945-1274.25889c.04506-55.8189,34.65181-95.42181,88.76946-108.967,3.87152-.969,8.17581-.2476,12.27889-.24765q647.00667-.0082,1294.01312-.30485c44.9141-.05223,91.92245,36.6945,102.333,81.33775a93.99782,93.99782,0,0,1,2.29462,21.64835q-.01149,646.36327.08148,1292.72655c.01864,51.92878-50.03459,102.05576-102.0122,102.00346Q1637.77828,1787.57762,1313.96687,1787.81234Z" transform="translate(-563.60115 -289.04536)"/><path class="cls-3" d="M1364.20281,950.04629c6.33664-9.24478,11.44013-17.50883,17.338-25.16059,34.35627-44.57269,79.76229-72.15392,134.40176-83.49978,66.32155-13.77167,131.62348-8.64284,193.92007,18.69556,57.80715,25.36825,91.05887,72.62553,109.536,131.25436,13.03931,41.374,18.64247,84.02076,20.17091,127.34878,5.11989,145.14329.77129,290.329,2.50117,435.48284.1159,9.71909-2.49966,12.29891-12.21,12.23458q-98.48953-.653-196.98433.01187c-10.18234.07306-12.9383-2.49624-12.90748-12.813q.55309-185.89656.01413-371.79492c-.13349-31.38114-3.79437-62.54839-15.95251-92.11985-15.24765-37.08567-43.92116-56.205-82.60407-59.98826-22.28418-2.17961-44.81685-1.07744-66.67638,6.02026-44.02954,14.2962-65.56033,47.41068-75.93117,89.85764-5.53762,22.66517-7.681,45.73325-7.6378,69.135.22074,119.41827-.05284,238.83766.36587,358.255.03781,10.786-2.47959,13.58619-13.41909,13.49089-65.65759-.57239-131.32389-.4798-196.98381-.06388-9.303.05877-11.5537-2.50767-11.54348-11.65347q.38795-345.94428.03074-691.88916c-.008-8.4775,2.0584-11.12248,10.8472-11.07047q94.797.56175,189.59824-.00549c9.02744-.05561,12.02533,2.00841,11.7507,11.47144-.70214,24.19167-.30011,48.41769-.17009,72.629C1361.67834,939.78179,1360.52757,943.9293,1364.20281,950.04629Z" transform="translate(-563.60115 -289.04536)"/><path class="cls-3" d="M1009.23994,1210.313c.0021,114.44118-.1407,228.88273.2466,343.32255.03464,10.24218-2.57648,12.85808-12.78731,12.78307q-98.44314-.72465-196.89369-.026c-9.59973.06133-12.27959-2.3545-12.26738-12.15356q.43061-345.16945-.00109-690.33951c-.01232-9.81867,2.70008-12.19647,12.27757-12.13612q99.05982.62433,198.12473-.005c9.23022-.0584,11.5413,2.33654,11.51507,11.5393Q1008.95907,1036.80421,1009.23994,1210.313Z" transform="translate(-563.60115 -289.04536)"/><path class="cls-3" d="M770.04225,625.705c-.22649-70.90024,56.4261-128.29121,126.79545-128.448,71.76562-.1599,129.67394,56.58266,129.8075,127.19425.13506,71.3823-57.00309,129.03184-127.95576,129.10087C826.92776,753.62188,770.271,697.31749,770.04225,625.705Z" transform="translate(-563.60115 -289.04536)"/></svg>