<svg id="Layer_1" data-name="Layer 1" xmlns="http://www.w3.org/2000/svg" viewBox="0 0 1500 1500"><defs><style>.cls-1{fill:none;}.cls-2{fill:#676766;}.cls-3{fill:#ed330f;}.cls-4{fill:#c37631;}.cls-5{fill:#eb5602;}.cls-6{fill:#92816f;}.cls-7{fill:#ed380d;}</style></defs><rect class="cls-1" width="1500" height="1500"/><path class="cls-2" d="M472.70775,1865.67763q-29.00643,0-58.01286-.00011c-12.863,1.19149-11.7337-7.43355-11.71961-15.99689.12718-77.297.01057-154.59454.08866-231.89169q.19361-191.63061.53164-383.2611c.87667-.86667,1.75321-1.73322,2.62319-2.61045,27.94339-6.22105,55.82384-6.76137,83.62572.98562,10.19152,9.01192,7.44174,21.2159,7.45465,32.41292q.2734,235.19319.14492,470.3871c.00259,9.48373-1.61687,19.45523,6.71011,26.85535,27.74927,7.71344,56.042,4.06764,84.06752,4.11937,57.55944.10628,115.12722.4107,172.67867-.06452,60.79118-.502,121.58554-.1769,182.37085-.33972,53.72924-.14394,107.49077-.92215,161.2247.416,47.3321,1.17859,94.63332-1.57556,141.90141-.9306a27.69781,27.69781,0,0,0,6.04659-3.30678c5.4129-8.23547,3.2786-17.465,3.28659-26.2328q.21138-235.93365.13881-471.86752c.016-27.08422.29711-27.22217,25.44011-34.567,17.26791-1.67151,34.5835-1.1231,51.86034-.68343,17.19605.43755,23.91343,5.90456,23.051,23.43993-2.04646,41.60855,1.48675,83.117.45683,124.67712-1.53608,61.98933-.21562,123.98992-.31379,185.98523q-.12577,79.59809-.00141,159.19242c.03077,24.27434-1.5396,48.56675.28513,72.83242a191.10193,191.10193,0,0,1-7.495,69.50758q-5.44778.47086-10.89556.94162h-172.878q-29.00661,0-58.01333-.00011-28.716,0-57.43179.00011-29.00659,0-58.01333-.00011-28.716,0-57.43178.00011-29.00661,0-58.01334-.00011-28.716,0-57.43178.00011-29.00661,0-58.01334-.00011-28.71594,0-57.43178.00011-29.00661,0-58.01333-.00011-28.716,0-57.43179.00011-29.00661,0-58.01333-.00011Q501.42388,1865.67752,472.70775,1865.67763Z" transform="translate(-229.3896 -365.7883)"/><path class="cls-3" d="M1334.80355,407.66478c.59423-11.57207-8.851-28.59314,14.98517-27.55016,14.22983-3.35007,29.17531-3.80989,42.57814-10.50947,10.21771,3.94332,22.11947-10.20371,29.72256-.10666,5.50356,7.30879,4.70029,19.33068,6.81087,29.22927.65718,3.08167,1.646,6.09272,2.48332,9.13609,7.09318,4.76941,8.14284,12.52614,9.79588,19.94186,7.04456,31.60633,14.3132,63.16437,20.71374,94.90534,4.32661,20.15967,9.28385,40.18909,13.12874,60.45624,3.88481,14.79974,6.498,29.88476,10.12329,44.7494,8.58487,43.81961,20.13549,86.99286,28.46129,130.85934,3.95809,13.76974,5.74947,28.04971,9.92153,41.7757,2.94743,21.42,9.76488,42.05824,12.927,63.43245,5.44508,19.91056,8.78381,40.31663,14.29817,60.22315,11.5424,54.885,4.871,45.81443-35.10234,55.46468-13.05311,3.15117-26.13651,5.9279-39.34393,8.23083-11.39137,1.98637-18.42561-2.6884-21.3721-13.81133-4.25144-16.05-7.07932-32.39661-10.33373-48.64465-4.918-21.18652-9.31627-42.49721-14.15232-63.70877-3.63373-20.12811-8.81575-39.92858-12.94506-59.953-3.76926-14.86094-5.9867-30.07714-10.37884-44.80236-8.04677-44.13892-19.96614-87.44461-28.28513-131.51544-3.55857-14.86223-6.69977-29.82255-10.19634-44.7054q-6.67241-30.02979-12.6463-60.20323c-7.42107-30.67-13.77276-61.57782-20.76213-92.34292C1333.6893,421.41106,1332.393,414.56792,1334.80355,407.66478Z" transform="translate(-229.3896 -365.7883)"/><path class="cls-4" d="M1215.50415,1230.00329c7.68248,1.21577,12.96315,2.337,9.35666,13.32-7.06194,21.50565-12.04949,43.69357-17.81047,65.62141-2.4192,9.20794-5.62381,15.69142-17.37642,10.34313-6.12809-2.78864-13.42585-3.01223-20.19538-4.39446-22.35023.73857-42.32812-9.215-63.45689-13.99656-20.20231-5.17972-40.12981-11.37274-60.43664-16.16581-34.76436-10.13878-69.66495-19.79249-104.62355-29.23552-20.19608-5.67863-40.21742-11.98157-60.62806-16.90555-21.05843-6.57627-42.62911-11.31878-63.74014-17.70911-38.90307-10.49762-77.62588-21.63938-116.53952-32.08105q-25.9799-7.41027-52.0089-14.69231c-12.94283-5.52343-28.9692-3.60451-39.05609-16.06974-4.35174-22.59086,8.389-41.80995,12.408-62.76321,8.64147-29.08659,8.64147-29.08659,31.86813-26.35761,17.37067,4.62186,34.57094,9.88246,51.93257,14.58063q56.57878,15.99842,113.32374,31.38131c17.17772,5.052,34.40618,9.92376,51.81736,14.135,20.2063,5.66067,40.26076,11.85815,60.6276,16.96127,39.62342,12.127,80.09052,21.23549,119.69433,33.411,20.15581,5.56519,40.07791,11.99048,60.54234,16.43468,15.84141,5.84332,32.59072,8.52181,48.60265,13.78211C1178.27315,1216.66928,1199.448,1216.37918,1215.50415,1230.00329Z" transform="translate(-229.3896 -365.7883)"/><path class="cls-5" d="M1307.05392,1095.62266c-15.17307,19.45342-25.38468,41.87454-37.32025,63.22382-4.82924,8.638-9.02268,9.21029-16.92289,4.67471-27.86682-15.99853-56.00187-31.53123-84.03522-47.2406-7.65254,1.693-13.27224-2.86958-19.31789-6.2078-33.778-18.65109-66.65234-38.89621-100.78348-56.92017-36.50278-22.48119-74.38579-42.55129-111.71333-63.58642-5.38037-3.15223-10.45928-6.80894-16.055-9.61441-14.185-7.57467-27.62467-16.4812-42.19893-23.36768-39.14969-23.61379-79.29007-45.50128-118.89448-68.32465-11.30764-7.81075-26.50491-10.85928-31.96231-25.88251,3.48212-19.59,17.19346-34.08238,25.59688-51.23357,2.82507-4.6414,5.25084-9.49711,7.60216-14.40039,6.19879-14.18261,15.86666-16.27315,29.06445-9.05674,9.98354,5.45909,19.43767,11.85083,29.782,16.64542,20.47946,12.06052,40.88012,24.26878,62.059,35.11328,36.9548,22.2949,74.7751,43.08738,112.24955,64.48177,37.98953,22.19565,76.42191,43.61684,114.59053,65.49471,36.77758,22.07636,75.11989,41.41909,111.79823,63.666,3.91229,2.17541,7.89293,4.2283,11.87522,6.28282,16.9156,10.26336,34.16355,19.94781,51.54232,29.42521,6.58516,3.3384,13.15152,6.82654,18.56818,11.81669C1306.8012,1084.502,1313.07632,1088.418,1307.05392,1095.62266Z" transform="translate(-229.3896 -365.7883)"/><path class="cls-6" d="M1203.368,1372.93065q-3.70243,40.31064-7.4051,80.62118c.10053,11.44183-5.75746,15.75171-16.80991,14.434a137.1662,137.1662,0,0,0-15.15029-1.05988c-16.46347.87488-32.37111-3.50949-48.58973-5.00458-19.29452-3.47969-39.01464-2.96108-58.33652-6.16557-16.86863-.29444-33.4513-3.18-50.12674-5.29444-27.61187-4.6035-55.58909-6.72126-83.32661-9.67-51.278-5.45175-102.64909-10.393-153.99659-15.36988-16.82917-1.0438-33.53972-3.14114-50.20589-5.64109-19.45447-4.55869-39.61873-2.651-59.16927-6.37379-26.86274-3.50961-55.14646.79758-79.86868-14.45441.53962-7.48129,4.84662-14.4713,2.91173-22.27531-11.3848-20.21714-1.48863-38.7772,4.49842-57.64155q2.13535-5.70256,4.27082-11.405c14.98506-10.554,30.32983-.6337,45.50549-.86433,19.29828,3.57859,39.04951,2.99158,58.38784,6.20945,16.61743.38371,32.97263,3.11944,49.39159,5.32377,18.26859,4.67588,37.39917,1.8327,55.6976,6.2749,77.63855,5.45657,154.87771,14.6387,232.07952,24.19094,19.63473,4.82322,40.047,2.70559,59.79438,6.55644,29.75274,1.14751,59.16632,4.47388,87.70277,13.47208C1187.51824,1373.93738,1195.73507,1371.833,1203.368,1372.93065Z" transform="translate(-229.3896 -365.7883)"/><path class="cls-7" d="M1338.64631,1053.37468c-4.76417-6.73422-7.71066-14.8661-15.09462-19.58568-8.5999-2.89263-12.5021-10.58079-17.34684-17.20117-36.23232-49.51525-72.10716-99.29227-108.9835-148.33008-10.63508-16.11261-22.05746-31.662-34.0783-46.77705-2.97056-4.33188-6.01159-8.613-9.40223-12.64494q-63.82069-88.55391-129.36338-175.82857c-9.04874-14.96874-20.07289-28.52247-30.68108-42.37482-3.67577-5.96043-8.46778-11.13417-12.2011-17.07237-6.04706-11.20179,1.49744-16.78935,9.20376-22.34085,16.29941-8.68985,27.36173-25.99082,47.25377-28.80122,5.26293-1.90144,8.97241-5.62818,11.98419-10.176,9.24123-2.24879,10.94653,6.73542,16.009,10.71529,19.0479,11.14181,26.5325,32.00591,40.23421,47.65011,2.24586,2.75823,4.33929,5.62493,6.31987,8.57625,41.89383,56.28366,82.48059,113.52285,124.81446,169.48222,41.60905,58.9767,85.61992,116.19829,127.90118,174.67843,8.69831,14.19369,22.26555,25.41223,26.20063,42.53474,2.22989,7.66253,8.40331,12.50223,13.16584,18.3519,21.19547,14.1541,21.65864,24.14724,1.2648,38.59795-15.12587,10.7177-29.53067,22.41092-44.847,32.84285C1353.19838,1060.98548,1344.94022,1065.24474,1338.64631,1053.37468Z" transform="translate(-229.3896 -365.7883)"/><path class="cls-2" d="M1183.84341,1630.499c-196.09006-.03484-392.18094-.32271-588.26888.30582-18.6478.05983-25.36249-5.21127-23.126-23.60651,2.60334-21.413-3.92509-43.42141,3.80589-64.59286q145.78575-.4334,291.5715-.83136c99.11764-.12892,198.23927.47674,297.34928-.38535,16.53534-.14382,20.62872,4.55235,19.62487,20.159C1183.32669,1584.45739,1184.05386,1607.50821,1183.84341,1630.499Z" transform="translate(-229.3896 -365.7883)"/></svg>